<svg width="88" height="88" viewBox="0 0 88 88" fill="none" xmlns="http://www.w3.org/2000/svg">
<path d="M45.21 16.3353C45.9834 15.5628 47.0319 15.1289 48.125 15.1289C49.2181 15.1289 50.2666 15.5628 51.04 16.3353L74.415 39.7103C75.1875 40.4837 75.6214 41.5321 75.6214 42.6253C75.6214 43.7184 75.1875 44.7668 74.415 45.5403L51.04 68.9153C50.2576 69.6435 49.2233 70.0401 48.1545 70.0216C47.0858 70.0032 46.0658 69.5711 45.309 68.8163C44.5542 68.0595 44.1221 67.0395 44.1036 65.9707C44.0852 64.902 44.4818 63.8677 45.21 63.0853L61.545 46.7503H20.625C19.531 46.7503 18.4818 46.3157 17.7082 45.5421C16.9346 44.7685 16.5 43.7193 16.5 42.6253C16.5 41.5313 16.9346 40.482 17.7082 39.7085C18.4818 38.9349 19.531 38.5003 20.625 38.5003H61.545L45.21 22.1653C44.4375 21.3918 44.0036 20.3434 44.0036 19.2503C44.0036 18.1571 44.4375 17.1087 45.21 16.3353Z" fill="#F4BFC9"/>
</svg>
