<svg width="179" height="209" viewBox="0 0 179 209" fill="none" xmlns="http://www.w3.org/2000/svg">
<path d="M106.591 85.6818C106.227 82.0151 104.667 79.1667 101.909 77.1364C99.1515 75.1061 95.4091 74.0909 90.6818 74.0909C87.4697 74.0909 84.7576 74.5455 82.5455 75.4545C80.3333 76.3333 78.6364 77.5606 77.4545 79.1364C76.303 80.7121 75.7273 82.5 75.7273 84.5C75.6667 86.1667 76.0152 87.6212 76.7727 88.8636C77.5606 90.1061 78.6364 91.1818 80 92.0909C81.3636 92.9697 82.9394 93.7424 84.7273 94.4091C86.5152 95.0455 88.4242 95.5909 90.4545 96.0455L98.8182 98.0455C102.879 98.9545 106.606 100.167 110 101.682C113.394 103.197 116.333 105.061 118.818 107.273C121.303 109.485 123.227 112.091 124.591 115.091C125.985 118.091 126.697 121.53 126.727 125.409C126.697 131.106 125.242 136.045 122.364 140.227C119.515 144.379 115.394 147.606 110 149.909C104.636 152.182 98.1667 153.318 90.5909 153.318C83.0758 153.318 76.5303 152.167 70.9545 149.864C65.4091 147.561 61.0758 144.152 57.9545 139.636C54.8636 135.091 53.2424 129.47 53.0909 122.773H72.1364C72.3485 125.894 73.2424 128.5 74.8182 130.591C76.4242 132.652 78.5606 134.212 81.2273 135.273C83.9242 136.303 86.9697 136.818 90.3636 136.818C93.697 136.818 96.5909 136.333 99.0455 135.364C101.53 134.394 103.455 133.045 104.818 131.318C106.182 129.591 106.864 127.606 106.864 125.364C106.864 123.273 106.242 121.515 105 120.091C103.788 118.667 102 117.455 99.6364 116.455C97.303 115.455 94.4394 114.545 91.0455 113.727L80.9091 111.182C73.0606 109.273 66.8636 106.288 62.3182 102.227C57.7727 98.1667 55.5152 92.697 55.5455 85.8182C55.5152 80.1818 57.0152 75.2576 60.0455 71.0455C63.1061 66.8333 67.303 63.5455 72.6364 61.1818C77.9697 58.8182 84.0303 57.6364 90.8182 57.6364C97.7273 57.6364 103.758 58.8182 108.909 61.1818C114.091 63.5455 118.121 66.8333 121 71.0455C123.879 75.2576 125.364 80.1364 125.455 85.6818H106.591Z" fill="#FE8E5C"/>
<path d="M50.8302 21.207C54.1492 24.6248 61.2558 31.5683 63.13 32C63.13 32 61.373 21.7468 59.6158 16.8898C57.8586 12.0329 54.8667 8.81485 50.8302 10.414C46.6277 12.0791 47.5113 17.7892 50.8302 21.207Z" fill="#FE8E5C" stroke="#FE8E5C"/>
<path d="M133.493 189.602C131.009 185.585 125.61 177.344 123.878 176.511C123.878 176.511 123.335 186.724 123.979 191.768C124.623 196.813 126.831 200.565 131.117 199.938C135.58 199.285 135.976 193.618 133.493 189.602Z" fill="#FE8E5C" stroke="#FE8E5C"/>
<path d="M24.0195 162.136C27.4233 158.863 34.3434 151.85 34.7934 149.982C34.7934 149.982 24.695 151.6 19.8986 153.292C15.1023 154.984 11.8993 157.932 13.415 161.99C14.9931 166.216 20.6158 165.409 24.0195 162.136Z" fill="#FE8E5C" stroke="#FE8E5C"/>
<path d="M88.6059 10.8653C89.6769 15.4644 92.1628 24.9981 93.5382 26.3406C93.5382 26.3406 97.3135 16.8357 98.3136 11.8491C99.3137 6.86249 98.4187 2.60189 94.1562 1.82813C89.7183 1.02252 87.5348 6.26629 88.6059 10.8653Z" fill="#FE8E5C" stroke="#FE8E5C"/>
<path d="M96.2845 197.678C95.3014 193.06 92.9979 183.48 91.6484 182.112C91.6484 182.112 87.6923 191.543 86.5973 196.51C85.5022 201.476 86.3157 205.753 90.5627 206.608C94.9844 207.498 97.2675 202.297 96.2845 197.678Z" fill="#FE8E5C" stroke="#FE8E5C"/>
<path d="M11.2235 126.459C15.631 124.765 24.7312 120.989 25.8714 119.441C25.8714 119.441 15.9369 117.012 10.8601 116.709C5.78326 116.405 1.68664 117.879 1.50764 122.207C1.32127 126.714 6.81589 128.154 11.2235 126.459Z" fill="#FE8E5C" stroke="#FE8E5C"/>
<path d="M10.0878 86.209C14.8044 85.9805 24.6294 85.2453 26.1969 84.1331C26.1969 84.1331 17.5235 78.7138 12.7973 76.8353C8.07099 74.9568 3.71896 75.0728 2.19302 79.1274C0.60428 83.3488 5.37123 86.4376 10.0878 86.209Z" fill="#FE8E5C" stroke="#FE8E5C"/>
<path d="M133.582 15.5448C132.673 20.1787 131.032 29.8936 131.737 31.6819C131.737 31.6819 139.077 24.5602 142.033 20.4218C144.99 16.2835 145.92 12.0305 142.349 9.57732C138.632 7.02317 134.49 10.9109 133.582 15.5448Z" fill="#FE8E5C" stroke="#FE8E5C"/>
<path d="M52.6978 191.723C53.6946 187.108 55.5206 177.426 54.8508 175.624C54.8508 175.624 47.3761 182.605 44.3412 186.686C41.3063 190.767 40.295 195.002 43.8182 197.522C47.4864 200.147 51.7011 196.339 52.6978 191.723Z" fill="#FE8E5C" stroke="#FE8E5C"/>
<path d="M21.4016 48.9176C26.0225 49.8897 35.7139 51.6642 37.5118 50.9848C37.5118 50.9848 30.4917 43.5474 26.3944 40.5343C22.2972 37.5212 18.0574 36.5324 15.5553 40.0689C12.9502 43.751 16.7806 47.9454 21.4016 48.9176Z" fill="#FE8E5C" stroke="#FE8E5C"/>
</svg>
