<svg width="1082" height="209" viewBox="0 0 1082 209" fill="none" xmlns="http://www.w3.org/2000/svg">
<path d="M108.591 85.6818C108.227 82.0151 106.667 79.1667 103.909 77.1364C101.152 75.1061 97.4091 74.0909 92.6818 74.0909C89.4697 74.0909 86.7576 74.5455 84.5455 75.4545C82.3333 76.3333 80.6364 77.5606 79.4545 79.1364C78.303 80.7121 77.7273 82.5 77.7273 84.5C77.6667 86.1667 78.0152 87.6212 78.7727 88.8636C79.5606 90.1061 80.6364 91.1818 82 92.0909C83.3636 92.9697 84.9394 93.7424 86.7273 94.4091C88.5152 95.0455 90.4242 95.5909 92.4545 96.0455L100.818 98.0455C104.879 98.9545 108.606 100.167 112 101.682C115.394 103.197 118.333 105.061 120.818 107.273C123.303 109.485 125.227 112.091 126.591 115.091C127.985 118.091 128.697 121.53 128.727 125.409C128.697 131.106 127.242 136.045 124.364 140.227C121.515 144.379 117.394 147.606 112 149.909C106.636 152.182 100.167 153.318 92.5909 153.318C85.0758 153.318 78.5303 152.167 72.9545 149.864C67.4091 147.561 63.0758 144.152 59.9545 139.636C56.8636 135.091 55.2424 129.47 55.0909 122.773H74.1364C74.3485 125.894 75.2424 128.5 76.8182 130.591C78.4242 132.652 80.5606 134.212 83.2273 135.273C85.9242 136.303 88.9697 136.818 92.3636 136.818C95.697 136.818 98.5909 136.333 101.045 135.364C103.53 134.394 105.455 133.045 106.818 131.318C108.182 129.591 108.864 127.606 108.864 125.364C108.864 123.273 108.242 121.515 107 120.091C105.788 118.667 104 117.455 101.636 116.455C99.303 115.455 96.4394 114.545 93.0455 113.727L82.9091 111.182C75.0606 109.273 68.8636 106.288 64.3182 102.227C59.7727 98.1667 57.5152 92.697 57.5455 85.8182C57.5152 80.1818 59.0152 75.2576 62.0455 71.0455C65.1061 66.8333 69.303 63.5455 74.6364 61.1818C79.9697 58.8182 86.0303 57.6364 92.8182 57.6364C99.7273 57.6364 105.758 58.8182 110.909 61.1818C116.091 63.5455 120.121 66.8333 123 71.0455C125.879 75.2576 127.364 80.1364 127.455 85.6818H108.591ZM186.375 122.273V82.1818H205.739V152H187.148V139.318H186.42C184.845 143.409 182.223 146.697 178.557 149.182C174.92 151.667 170.481 152.909 165.239 152.909C160.572 152.909 156.466 151.848 152.92 149.727C149.375 147.606 146.602 144.591 144.602 140.682C142.633 136.773 141.633 132.091 141.602 126.636V82.1818H160.966V123.182C160.996 127.303 162.102 130.561 164.284 132.955C166.466 135.348 169.39 136.545 173.057 136.545C175.39 136.545 177.572 136.015 179.602 134.955C181.633 133.864 183.269 132.258 184.511 130.136C185.784 128.015 186.405 125.394 186.375 122.273ZM240.591 111.636V152H221.227V82.1818H239.682V94.5H240.5C242.045 90.4394 244.636 87.2273 248.273 84.8636C251.909 82.4697 256.318 81.2727 261.5 81.2727C266.348 81.2727 270.576 82.3333 274.182 84.4545C277.788 86.5758 280.591 89.6061 282.591 93.5455C284.591 97.4545 285.591 102.121 285.591 107.545V152H266.227V111C266.258 106.727 265.167 103.394 262.955 101C260.742 98.5758 257.697 97.3636 253.818 97.3636C251.212 97.3636 248.909 97.9242 246.909 99.0455C244.939 100.167 243.394 101.803 242.273 103.955C241.182 106.076 240.621 108.636 240.591 111.636ZM320.216 111.636V152H300.852V82.1818H319.307V94.5H320.125C321.67 90.4394 324.261 87.2273 327.898 84.8636C331.534 82.4697 335.943 81.2727 341.125 81.2727C345.973 81.2727 350.201 82.3333 353.807 84.4545C357.413 86.5758 360.216 89.6061 362.216 93.5455C364.216 97.4545 365.216 102.121 365.216 107.545V152H345.852V111C345.883 106.727 344.792 103.394 342.58 101C340.367 98.5758 337.322 97.3636 333.443 97.3636C330.837 97.3636 328.534 97.9242 326.534 99.0455C324.564 100.167 323.019 101.803 321.898 103.955C320.807 106.076 320.246 108.636 320.216 111.636ZM389.932 178.182C387.477 178.182 385.174 177.985 383.023 177.591C380.902 177.227 379.144 176.758 377.75 176.182L382.114 161.727C384.386 162.424 386.432 162.803 388.25 162.864C390.098 162.924 391.689 162.5 393.023 161.591C394.386 160.682 395.492 159.136 396.341 156.955L397.477 154L372.432 82.1818H392.795L407.25 133.455H407.977L422.568 82.1818H443.068L415.932 159.545C414.629 163.303 412.856 166.576 410.614 169.364C408.402 172.182 405.598 174.348 402.205 175.864C398.811 177.409 394.72 178.182 389.932 178.182ZM479.42 75.1364V58.9091H555.875V75.1364H527.375V152H507.92V75.1364H479.42ZM587.466 111.636V152H568.102V58.9091H586.92V94.5H587.739C589.314 90.3788 591.86 87.1515 595.375 84.8182C598.89 82.4545 603.299 81.2727 608.602 81.2727C613.451 81.2727 617.678 82.3333 621.284 84.4545C624.92 86.5455 627.739 89.5606 629.739 93.5C631.769 97.4091 632.769 102.091 632.739 107.545V152H613.375V111C613.405 106.697 612.314 103.348 610.102 100.955C607.92 98.5606 604.86 97.3636 600.92 97.3636C598.284 97.3636 595.951 97.9242 593.92 99.0455C591.92 100.167 590.345 101.803 589.193 103.955C588.072 106.076 587.496 108.636 587.466 111.636ZM679.523 153.364C672.462 153.364 666.356 151.864 661.205 148.864C656.083 145.833 652.129 141.621 649.341 136.227C646.553 130.803 645.159 124.515 645.159 117.364C645.159 110.152 646.553 103.848 649.341 98.4545C652.129 93.0303 656.083 88.8182 661.205 85.8182C666.356 82.7879 672.462 81.2727 679.523 81.2727C686.583 81.2727 692.674 82.7879 697.795 85.8182C702.947 88.8182 706.917 93.0303 709.705 98.4545C712.492 103.848 713.886 110.152 713.886 117.364C713.886 124.515 712.492 130.803 709.705 136.227C706.917 141.621 702.947 145.833 697.795 148.864C692.674 151.864 686.583 153.364 679.523 153.364ZM679.614 138.364C682.826 138.364 685.508 137.455 687.659 135.636C689.811 133.788 691.432 131.273 692.523 128.091C693.644 124.909 694.205 121.288 694.205 117.227C694.205 113.167 693.644 109.545 692.523 106.364C691.432 103.182 689.811 100.667 687.659 98.8182C685.508 96.9697 682.826 96.0455 679.614 96.0455C676.371 96.0455 673.644 96.9697 671.432 98.8182C669.25 100.667 667.598 103.182 666.477 106.364C665.386 109.545 664.841 113.167 664.841 117.227C664.841 121.288 665.386 124.909 666.477 128.091C667.598 131.273 669.25 133.788 671.432 135.636C673.644 137.455 676.371 138.364 679.614 138.364ZM771.25 122.273V82.1818H790.614V152H772.023V139.318H771.295C769.72 143.409 767.098 146.697 763.432 149.182C759.795 151.667 755.356 152.909 750.114 152.909C745.447 152.909 741.341 151.848 737.795 149.727C734.25 147.606 731.477 144.591 729.477 140.682C727.508 136.773 726.508 132.091 726.477 126.636V82.1818H745.841V123.182C745.871 127.303 746.977 130.561 749.159 132.955C751.341 135.348 754.265 136.545 757.932 136.545C760.265 136.545 762.447 136.015 764.477 134.955C766.508 133.864 768.144 132.258 769.386 130.136C770.659 128.015 771.28 125.394 771.25 122.273ZM837.557 179.636C831.284 179.636 825.905 178.773 821.42 177.045C816.966 175.348 813.42 173.03 810.784 170.091C808.148 167.152 806.436 163.848 805.648 160.182L823.557 157.773C824.102 159.167 824.966 160.47 826.148 161.682C827.33 162.894 828.89 163.864 830.83 164.591C832.799 165.348 835.193 165.727 838.011 165.727C842.223 165.727 845.693 164.697 848.42 162.636C851.178 160.606 852.557 157.197 852.557 152.409V139.636H851.739C850.89 141.576 849.617 143.409 847.92 145.136C846.223 146.864 844.042 148.273 841.375 149.364C838.708 150.455 835.527 151 831.83 151C826.587 151 821.814 149.788 817.511 147.364C813.239 144.909 809.83 141.167 807.284 136.136C804.769 131.076 803.511 124.682 803.511 116.955C803.511 109.045 804.799 102.439 807.375 97.1364C809.951 91.8333 813.375 87.8636 817.648 85.2273C821.951 82.5909 826.663 81.2727 831.784 81.2727C835.693 81.2727 838.966 81.9394 841.602 83.2727C844.239 84.5758 846.36 86.2121 847.966 88.1818C849.602 90.1212 850.86 92.0303 851.739 93.9091H852.466V82.1818H871.693V152.682C871.693 158.621 870.239 163.591 867.33 167.591C864.42 171.591 860.39 174.591 855.239 176.591C850.117 178.621 844.223 179.636 837.557 179.636ZM837.966 136.455C841.087 136.455 843.723 135.682 845.875 134.136C848.057 132.561 849.723 130.318 850.875 127.409C852.057 124.47 852.648 120.955 852.648 116.864C852.648 112.773 852.072 109.227 850.92 106.227C849.769 103.197 848.102 100.848 845.92 99.1818C843.739 97.5151 841.087 96.6818 837.966 96.6818C834.784 96.6818 832.102 97.5455 829.92 99.2727C827.739 100.97 826.087 103.333 824.966 106.364C823.845 109.394 823.284 112.894 823.284 116.864C823.284 120.894 823.845 124.379 824.966 127.318C826.117 130.227 827.769 132.485 829.92 134.091C832.102 135.667 834.784 136.455 837.966 136.455ZM906.466 111.636V152H887.102V58.9091H905.92V94.5H906.739C908.314 90.3788 910.86 87.1515 914.375 84.8182C917.89 82.4545 922.299 81.2727 927.602 81.2727C932.451 81.2727 936.678 82.3333 940.284 84.4545C943.92 86.5455 946.739 89.5606 948.739 93.5C950.769 97.4091 951.769 102.091 951.739 107.545V152H932.375V111C932.405 106.697 931.314 103.348 929.102 100.955C926.92 98.5606 923.86 97.3636 919.92 97.3636C917.284 97.3636 914.951 97.9242 912.92 99.0455C910.92 100.167 909.345 101.803 908.193 103.955C907.072 106.076 906.496 108.636 906.466 111.636ZM1004.11 82.1818V96.7273H962.068V82.1818H1004.11ZM971.614 65.4545H990.977V130.545C990.977 132.333 991.25 133.727 991.795 134.727C992.341 135.697 993.098 136.379 994.068 136.773C995.068 137.167 996.22 137.364 997.523 137.364C998.432 137.364 999.341 137.288 1000.25 137.136C1001.16 136.955 1001.86 136.818 1002.34 136.727L1005.39 151.136C1004.42 151.439 1003.05 151.788 1001.3 152.182C999.538 152.606 997.402 152.864 994.886 152.955C990.22 153.136 986.129 152.515 982.614 151.091C979.129 149.667 976.417 147.455 974.477 144.455C972.538 141.455 971.583 137.667 971.614 133.091V65.4545ZM1073.94 102.091L1056.22 103.182C1055.91 101.667 1055.26 100.303 1054.26 99.0909C1053.26 97.8485 1051.94 96.8636 1050.31 96.1364C1048.7 95.3788 1046.78 95 1044.53 95C1041.53 95 1039 95.6364 1036.94 96.9091C1034.88 98.1515 1033.85 99.8182 1033.85 101.909C1033.85 103.576 1034.52 104.985 1035.85 106.136C1037.19 107.288 1039.47 108.212 1042.72 108.909L1055.35 111.455C1062.14 112.848 1067.2 115.091 1070.53 118.182C1073.87 121.273 1075.53 125.333 1075.53 130.364C1075.53 134.939 1074.19 138.955 1071.49 142.409C1068.82 145.864 1065.16 148.561 1060.49 150.5C1055.85 152.409 1050.5 153.364 1044.44 153.364C1035.2 153.364 1027.84 151.439 1022.35 147.591C1016.9 143.712 1013.7 138.439 1012.76 131.773L1031.81 130.773C1032.38 133.591 1033.78 135.742 1035.99 137.227C1038.2 138.682 1041.03 139.409 1044.49 139.409C1047.88 139.409 1050.61 138.758 1052.67 137.455C1054.76 136.121 1055.82 134.409 1055.85 132.318C1055.82 130.561 1055.08 129.121 1053.62 128C1052.17 126.848 1049.93 125.97 1046.9 125.364L1034.81 122.955C1027.99 121.591 1022.91 119.227 1019.58 115.864C1016.28 112.5 1014.62 108.212 1014.62 103C1014.62 98.5151 1015.84 94.6515 1018.26 91.4091C1020.72 88.1667 1024.16 85.6667 1028.58 83.9091C1033.03 82.1515 1038.25 81.2727 1044.22 81.2727C1053.03 81.2727 1059.97 83.1364 1065.03 86.8636C1070.13 90.5909 1073.09 95.6667 1073.94 102.091Z" fill="#F9F7F6"/>
<path d="M50.8302 21.207C54.1492 24.6248 61.2558 31.5683 63.13 32C63.13 32 61.373 21.7468 59.6158 16.8898C57.8586 12.0329 54.8667 8.81485 50.8302 10.414C46.6277 12.0791 47.5113 17.7892 50.8302 21.207Z" fill="#F9F7F6" stroke="#F9F7F6"/>
<path d="M133.493 189.602C131.009 185.585 125.61 177.344 123.878 176.511C123.878 176.511 123.335 186.724 123.979 191.768C124.623 196.813 126.831 200.565 131.117 199.938C135.58 199.285 135.976 193.618 133.493 189.602Z" fill="#F9F7F6" stroke="#F9F7F6"/>
<path d="M24.0195 162.137C27.4233 158.864 34.3434 151.85 34.7934 149.982C34.7934 149.982 24.695 151.6 19.8986 153.292C15.1023 154.984 11.8993 157.932 13.415 161.991C14.9931 166.216 20.6158 165.41 24.0195 162.137Z" fill="#F9F7F6" stroke="#F9F7F6"/>
<path d="M88.6056 10.8653C89.6767 15.4644 92.1626 24.9981 93.5379 26.3406C93.5379 26.3406 97.3133 16.8357 98.3134 11.8491C99.3135 6.86249 98.4185 2.60189 94.156 1.82813C89.718 1.02252 87.5346 6.26629 88.6056 10.8653Z" fill="#F9F7F6" stroke="#F9F7F6"/>
<path d="M96.2842 197.678C95.3011 193.06 92.9976 183.48 91.6481 182.112C91.6481 182.112 87.6921 191.543 86.597 196.51C85.5019 201.476 86.3155 205.753 90.5624 206.608C94.9842 207.498 97.2673 202.297 96.2842 197.678Z" fill="#F9F7F6" stroke="#F9F7F6"/>
<path d="M11.2235 126.459C15.631 124.765 24.7312 120.989 25.8714 119.441C25.8714 119.441 15.9369 117.012 10.8601 116.708C5.78326 116.405 1.68664 117.879 1.50764 122.207C1.32127 126.714 6.81589 128.154 11.2235 126.459Z" fill="#F9F7F6" stroke="#F9F7F6"/>
<path d="M10.0878 86.209C14.8044 85.9805 24.6294 85.2453 26.1969 84.1331C26.1969 84.1331 17.5235 78.7138 12.7973 76.8353C8.07099 74.9568 3.71896 75.0728 2.19302 79.1274C0.60428 83.3488 5.37123 86.4376 10.0878 86.209Z" fill="#F9F7F6" stroke="#F9F7F6"/>
<path d="M133.582 15.5448C132.673 20.1787 131.032 29.8936 131.737 31.6819C131.737 31.6819 139.077 24.5602 142.033 20.4218C144.99 16.2835 145.92 12.0305 142.349 9.57732C138.632 7.02317 134.49 10.9109 133.582 15.5448Z" fill="#F9F7F6" stroke="#F9F7F6"/>
<path d="M52.6976 191.723C53.6943 187.108 55.5204 177.426 54.8506 175.624C54.8506 175.624 47.3759 182.605 44.341 186.686C41.3061 190.767 40.2948 195.002 43.818 197.522C47.4861 200.147 51.7008 196.339 52.6976 191.723Z" fill="#F9F7F6" stroke="#F9F7F6"/>
<path d="M21.4016 48.9176C26.0225 49.8897 35.7139 51.6642 37.5118 50.9848C37.5118 50.9848 30.4917 43.5474 26.3944 40.5343C22.2972 37.5212 18.0574 36.5324 15.5553 40.0689C12.9502 43.751 16.7806 47.9454 21.4016 48.9176Z" fill="#F9F7F6" stroke="#F9F7F6"/>
</svg>
